# xmcd
#
# Track frame offsets:
#	150
#	12898
#	28953
#	44320
#	57137
#	72170
#	85203
#	100692
#	114942
#	134182
#	149537
#	162994
#
# Disc length: 2342 seconds
#
# Revision: 0
# Processed by: cddbd v1.5.1PL0 Copyright (c) Steve Scherf et al.
# Submitted via: EasyCDDAExtractor 8.1.2.3
#
DISCID=a509240c
DTITLE=Various Artist - Country Feuer CD 2
DYEAR=2001
DGENRE=Country
TTITLE0=Country Rose and Ralf Paulsen - Hallo Country Rose
TTITLE1=Linda Feller - Andre Mütter haben auch ein schönes Kind
TTITLE2=Gunter Gabriel - Truck Stop, Tom Astor und ich
TTITLE3=Greyhounds - Typen mit dem Cowboyhut
TTITLE4=Hanna and Daana - Hört er Country, wird er wach
TTITLE5=Mike Herman and Booze Company - Verliebt in Country
TTITLE6=Joe Hodkins and Boss Band - Nimm dir Zeit für deine Freunde
TTITLE7=Iris McCollins - Liebeskrank
TTITLE8=Larry Schuba and Western Union - Countrymusicfieber
TTITLE9=Trucks aus dem Zillertal - Eine Herde weißer Pferde
TTITLE10=Dagmar - The Lady Of Country - Laß mich damit bloß in Ruhe
TTITLE11=Max Zwo - Super, Normal, Bleifrei, Diesel
EXTD=
EXTT0=
EXTT1=
EXTT2=
EXTT3=
EXTT4=
EXTT5=
EXTT6=
EXTT7=
EXTT8=
EXTT9=
EXTT10=
EXTT11=
PLAYORDER=
